<?xml version="1.0" encoding="utf-8"?>
<!-- Generator: Adobe Illustrator 24.2.0, SVG Export Plug-In . SVG Version: 6.00 Build 0)  -->
<svg version="1.1" id="Layer_1" xmlns="http://www.w3.org/2000/svg" xmlns:xlink="http://www.w3.org/1999/xlink" x="0px" y="0px"
	 viewBox="0 0 512 512" style="enable-background:new 0 0 512 512;" xml:space="preserve">
<style type="text/css">
	.st0{fill:#74AC00;}
</style>
<g id="_x3F__x3F__x3F__x3F__x5F_x0020_x5F_1">
	<path class="st0" d="M199.51,58.23c22.84,10.48,44.92,22.86,64.93,38.11c11.52,8.85,22.37,18.72,31.29,30.23
		c14.61,19.3,26.51,40.82,33.98,63.88c3.12,10.06,5.86,20.49,5.6,31.1c-0.15,2.65-0.27,6.09-3.06,7.38
		c-2.12-0.87-3.59-2.66-5.09-4.3c-21.44-23.28-46.22-43.24-72.21-61.2c-5.11-3.7-10.66-6.88-15.1-11.44
		c-8.58-8.53-14.71-19.16-19.92-29.99C210.46,101.72,204.17,80.08,199.51,58.23L199.51,58.23z M31,104.03
		c48.07,4.94,95.81,15.17,140.79,33.08c47.24,18.66,91.16,46.07,127.74,81.38c4.99,4.77,9.83,9.7,14.56,14.73
		c3.58,3.72,6.85,7.84,11.15,10.8c2.34,1.59,5.32,3.1,8.2,2.1c2.77-1.15,4.78-3.52,6.64-5.8c5.85-7.66,10.27-16.31,16.23-23.91
		c12.68-17,31.14-29.93,51.95-34.59c17.23-3.78,35.15-2.82,52.45,0.03c5.65,1.03,11.33,2.06,16.79,3.85
		c1.42,0.62,3.75,1.39,3.47,3.34c-1.13,2.03-3.48,2.89-5.24,4.27c-9.9,6.51-17.72,16.02-22.27,26.96
		c-8.67,21.06-12.12,43.72-16.28,65.97c-9.08,44.44-33.18,85.56-67.31,115.41c-30.88,27.23-69.97,44.97-110.81,50.26
		c-35.52,4.77-72.26,0.31-105.54-13.01c24.68-2.63,48.75-10.74,69.98-23.61c18.21-10.93,34.24-25.3,47.66-41.73
		c4.1-5.03,8.21-10.11,11.39-15.79c1.36-2.6,2.84-5.51,2.17-8.52c-0.82-2.3-3.4-3.12-5.59-3.41c-5.42-0.68-10.88,0.01-16.29,0.41
		c-14.82,1.36-29.95,2.67-44.65-0.4c-12.11-2.28-23.66-7.19-33.88-14.04c-17.34-11.65-31.53-27.24-44.91-43.11
		c-3.23-3.86-6.39-7.78-9.52-11.72c18.85-4.88,38.25-7.44,57.65-8.75c-23.54-5.52-46.22-14.88-66.7-27.76
		c-16.4-10.47-31.6-23.59-41.81-40.35c19.15-6.09,39.53-3.85,59.25-3.02c-14.34-8.7-28.71-17.35-42.74-26.54
		c-16.04-10.61-32.08-21.53-45.7-35.19C41.2,126.66,33.77,116.18,31,104.03L31,104.03z M414.73,197.87
		c-5.16,1.6-8.58,7.4-7.25,12.68c1.11,5.88,7.7,9.95,13.45,8.19c5.8-1.4,9.53-8.1,7.56-13.76
		C426.89,199.36,420.26,195.9,414.73,197.87L414.73,197.87z"/>
</g>
</svg>
