<svg xmlns="http://www.w3.org/2000/svg" width="323" height="362" fill="none" xmlns:v="https://vecta.io/nano"><g stroke="#000" stroke-width="11.2" stroke-miterlimit="10" stroke-linejoin="round"><path d="M10.253 12.386L307.109 6l9.575 304.304-185.404 6.383v12.768H50.684v26.6H6l4.253-343.669z"/><path d="M10.253 12.386L307.109 6l9.575 304.304-185.404 6.383v12.768H50.684v26.6H6l4.253-343.669z"/></g><path d="M315.572 150.551c-22.906-17.272-50.529-26.23-79.836-26.23h-3.705-1.685c-40.761 1.6-78.151 21.431-101.057 53.417-1.011 1.6-.675 3.519 1.01 4.478.675.319 1.347.64 2.021.64 1.01 0 2.021-.64 2.695-1.278 21.559-30.068 56.255-48.62 93.983-50.538 2.695 10.874 11.453 57.255-22.233 98.837-27.285-14.393-54.234-25.908-79.161-35.186-.675-.319-1.347-.64-2.021-.64-64.34-23.35-114.526-30.387-115.205-30.387-2.021-.319-3.706.96-3.706 2.879s.674 3.199 2.695 3.518c1.01 0 44.802 6.078 103.079 25.908-24.59 5.438-78.488 22.39-105.774 71.969-1.01 1.6-.336 3.519 1.346 4.159.674.321 1.013.321 1.685.321 1.346 0 2.359-.64 3.031-1.599 31.665-57.895 102.404-69.41 112.173-70.69 32.34 11.837 68.382 27.508 103.415 48.941-4.715 2.24-12.126 6.397-21.558 13.115-4.38-.959-9.432 0-12.802 2.878-2.695 2.56-3.705 6.397-3.031 9.597-11.116 9.596-21.894 21.111-32.339 33.905-1.011 1.278-1.011 3.518.674 4.478.674.319 1.347.64 2.021.64 1.01 0 2.021-.319 2.695-1.279 8.758-10.874 17.853-20.471 27.285-28.786-.674 3.519.674 7.677 3.705 10.237 2.36 2.24 5.391 3.518 8.422 3.518h.336c1.01 0 2.359-.319 3.369-.64v4.797c-3.705-2.24-7.747-2.878-7.747-2.878-1.684-.319-3.705.959-4.041 2.559s1.01 3.519 2.695 3.838c0 0 8.085 1.599 9.096 6.396v.319s0 .319.336.319c0 .319.336.319.336.641l.672.638s.336 0 .336.319c0 0 .336 0 .336.319h.336.674.674.336s.337 0 .337-.319c0 0 .336 0 .336-.319l.672-.638c0-.319.336-.319.336-.641 0 0 0-.319.336-.319v-.319c1.01-4.797 9.095-6.396 9.095-6.396 1.685-.319 3.031-1.919 2.695-3.838s-2.02-2.878-4.041-2.559c-.336 0-4.042.64-7.747 2.878v-4.478c1.01.319 2.021.319 3.031.319 3.37 0 6.401-1.278 9.096-3.518 4.38-4.159 4.716-10.237 1.684-15.034 2.696-4.478 2.36-10.237-1.684-14.074-1.685-1.6-4.042-2.879-6.063-3.2 7.748-5.118 13.474-7.677 16.169-8.637 26.275 16.634 51.875 36.145 74.782 59.175.675.64 1.685.959 2.36.959s1.684-.319 2.359-.959c1.346-1.279 1.346-3.2 0-4.478-20.549-20.79-43.118-38.383-66.024-53.736 23.243-65.891 7.41-108.753.336-123.147 22.905 2.24 44.466 10.556 62.655 24.309 1.347.96 3.706.96 4.716-.64.679-.64.679-2.878-1.006-3.838l.003-.002zM211.146 276.896h0c.336.319.674.319.674.641l.674.64v.319c.336.64.336 1.6 0 2.24v.319.319s0 .319-.336.319c-.676 0-.676.322-1.012.322s-.336 0-.675.319c-.674.319-1.684 0-2.359-.319-.336 0-.336-.32-.674-.32l-.336-.319v-.319c-.336-.319-.336-.959-.336-1.599v-.641-.319l.336-.319c0-.319.336-.319.336-.64.336-.319.336-.319.674-.319.336-.319.675-.319 1.011-.319h.672.336l1.015-.005c-.339 0-.339 0 0 0h0zm-12.466-7.356c1.011-.959 2.695-1.6 4.38-1.6h1.346c-.336.319-.336.641-.336.96-.336.959-1.01 1.918-1.346 2.878v.319h-.336c-1.01.319-2.021.64-3.031 1.278-.336.319-1.011.319-1.347.641-1.012-1.279-.676-3.198.67-4.476h0zm4.044 21.431c-1.346 0-2.695-.641-3.705-1.6-2.36-2.24-2.36-5.756-.336-7.677l1.01-.96c.336 1.279.674 2.24 1.346 3.519.336.64 1.011 1.278 1.347 1.919 1.346 1.278 3.031 2.24 5.052 2.559l-.672.638c-1.011.962-2.696 1.602-4.042 1.602h0zm17.515-1.281c-1.685 1.6-4.042 1.919-6.062 1.278v-.319c.336-.319.336-.64.674-.959 0-.319.336-.64.336-.959s.336-.641.336-1.279v-.64c.336-.319.674-.641 1.01-.641.336-.319.675-.64.675-.959h.674c.336 0 .675 0 1.347-.319.336 0 .674-.319 1.01-.319s.674-.319 1.01-.319l.339-.002c.674 1.599.336 3.837-1.349 5.437h0zm-.336-12.793l-.674.64c-.336-.959-.337-1.6-1.011-2.559 0 0 0-.319-.336-.319-.336-.641-1.01-1.279-1.685-1.919s-1.346-1.279-2.359-1.6a5.9 5.9 0 0 0-3.369-.959h-.336c.336-.319.336-.641.674-.96l.336-.319c2.359-1.919 6.062-1.919 8.421.319 3.034 2.557 2.36 5.757.339 7.676h0zm22.905-26.23c-1.685-.96-3.37-1.919-4.716-3.2-.336-.319-.674-.64-1.346-.959l-23.918-14.075c33.685-42.541 26.275-88.281 23.243-102.035h5.052c4.38 8.317 25.267 51.18 1.685 120.268v.001zm-16.504-183.6c7.075 0 13.812-.319 19.874-1.278 5.39.959 11.453 1.278 17.854 1.278 20.212 0 40.761-5.118 40.761-15.033S284.244 37 264.032 37c-14.823 0-28.296 2.559-35.032 7.037h-2.359c-4.042 0-39.076.319-39.076 11.515s34.698 11.515 38.739 11.515h0zm0-16.953h3.37c1.01 0 1.346-.319 2.021-.64 4.379-3.2 16.168-6.397 32.339-6.397 21.223 0 34.022 5.437 34.022 8.637s-12.801 8.637-34.022 8.637c-6.062 0-11.791-.319-17.179-1.279h-.674-.675c-5.726.959-12.463 1.279-19.202 1.279-17.853 0-29.644-3.2-32.001-5.118 2.357-1.921 14.148-5.118 32.001-5.118h0zM57.539 119.205c8.085 0 15.497-.641 22.569-1.919 7.747 1.278 16.507 1.919 25.264 1.919 18.189 0 48.844-2.879 48.844-14.075s-30.655-14.074-48.844-14.074h-3.369c-6.062-3.838-16.507-7.037-28.97-8.316v-.319l8.421-3.2c1.685-.64 2.695-2.559 1.685-4.159s-2.695-2.559-4.38-1.6l-8.085 3.2a23.78 23.78 0 0 0-8.758-9.275l3.031-7.037c.674-1.6 0-3.519-1.685-4.159s-3.706 0-4.38 1.6l-2.69 6.718c-4.38-1.278-9.096-1.6-13.812-.319l-3.031-6.718c-.674-1.6-2.695-2.559-4.38-1.6-1.685.64-2.695 2.559-1.685 4.159l3.031 6.718c-4.042 2.24-7.411 5.437-9.432 9.275l-7.408-2.878c-1.685-.64-3.706 0-4.38 1.6s0 3.519 1.685 4.159l7.411 2.878c-.336 1.6-.674 2.878-.674 4.478C12.401 89.777 6 94.577 6 100.652c.338 12.155 25.939 18.552 51.539 18.552v.001zm-15.83-48.299c2.359-.96 4.716-1.279 7.075-1.279 7.075 0 14.148 4.159 17.179 10.875 0 .319.336.64.336 1.278 0 .319 0 .319.336.64h-.674c-2.695 0-5.052-.319-7.747-.319s-5.39 0-8.085.319c-1.01 0-1.685 0-2.359.319-1.685 0-3.37.319-5.052.319-1.01 0-1.685.319-2.695.319-1.685.319-3.031.319-4.716.64-1.01 0-1.685.319-2.695.319-.336 0-1.01.319-1.685.319.336-1.278.336-2.24 1.01-3.2 1.351-4.795 5.057-8.632 9.772-10.551h-.001zm-13.812 20.79c8.085-2.24 18.528-3.519 29.644-3.519h6.401c2.021 0 4.042.319 6.062.319 12.801 1.278 23.918 4.159 29.306 7.996.674.319 1.347.64 2.021.64h4.041c25.601 0 41.097 5.118 42.108 7.677-1.347 2.879-16.507 7.678-42.108 7.678-8.757 0-17.179-.641-24.589-1.919h-.674-.674c-6.737 1.278-14.148 1.919-21.895 1.919-27.285 0-44.466-7.357-44.466-12.475.002-1.919 4.382-5.437 14.825-8.318h-.001zm235.798 193.517l-7.41 7.037-5.052-4.797c-1.347-1.279-3.37-1.279-4.716 0s-1.347 3.199 0 4.478l7.411 7.356c.674.64 1.346.959 2.359.959s1.685-.319 2.359-.959l9.768-9.275c1.346-1.279 1.346-3.2 0-4.478s-3.708-1.6-4.719-.321h0zm15.833-108.753c.674.64 1.346.959 2.359.959s1.685-.319 2.359-.959l9.768-9.275c1.346-1.279 1.346-3.2 0-4.478s-3.37-1.279-4.716 0l-7.411 7.037-5.052-4.797c-1.346-1.279-3.37-1.279-4.716 0s-1.346 3.199 0 4.478l7.409 7.035zm20.211 47.979c.675.64 1.347.959 2.359.959s1.685-.319 2.359-.959l9.768-9.275c1.347-1.278 1.347-3.199 0-4.478s-3.369-1.278-4.716 0l-7.411 7.037-5.052-4.797c-1.346-1.278-3.369-1.278-4.715 0s-1.347 3.2 0 4.478l7.408 7.035zm-30.991 31.027l7.411 7.356c.674.64 1.346.959 2.359.959s1.685-.319 2.359-.959l9.768-9.275c1.346-1.279 1.346-3.2 0-4.478s-3.37-1.278-4.716 0l-7.411 7.037-5.052-4.797c-1.346-1.278-3.369-1.278-4.715 0-1.349.957-1.349 2.876-.003 4.157h0zm-63.329-85.404c1.01 0 1.685-.319 2.359-.959l9.768-9.275c1.346-1.278 1.346-3.199 0-4.478s-3.37-1.278-4.716 0l-7.411 7.037-5.054-5.12c-1.347-1.279-3.37-1.279-4.716 0s-1.346 3.199 0 4.478l7.411 7.356c.336.64 1.346.962 2.359.962v-.001zm-26.949 31.987c1.011 0 1.685-.319 2.36-.96l9.767-9.275c1.347-1.278 1.347-3.199 0-4.478s-3.369-1.278-4.716 0l-7.41 7.037-5.055-5.12c-1.346-1.279-3.369-1.279-4.716 0s-1.346 3.199 0 4.478l7.411 7.356c.339.64 1.349.962 2.359.962h0zM34.969 199.49c1.01 0 1.685-.319 2.359-.96l9.768-9.275c1.347-1.278 1.347-3.199 0-4.478s-3.369-1.278-4.716 0l-7.411 7.037-5.052-4.797c-1.346-1.278-3.37-1.278-4.716 0s-1.346 3.2 0 4.478l7.411 7.357c.674.316 1.685.638 2.357.638h0zm-21.895 15.993c-1.346-1.279-3.37-1.279-4.716 0s-1.346 3.199 0 4.478l7.411 7.356c.674.64 1.346.959 2.359.959s1.685-.319 2.359-.959l9.768-9.275c1.346-1.278 1.346-3.199 0-4.478s-3.37-1.278-4.716 0l-7.411 7.037-5.054-5.118zm75.792 31.026c-3.37-2.24-7.411-2.878-11.452-2.24s-7.411 2.879-9.768 6.078l-8.759 12.475c-1.01 1.6-.674 3.518 1.01 4.478l19.874 12.474c.674.319 1.346.641 2.021.641 1.01 0 2.021-.641 2.695-1.279l8.758-12.474c2.359-3.2 3.031-7.037 2.359-10.875-1.01-3.84-3.367-7.039-6.737-9.277l-.001-.001zm-1.346 16.632l-6.737 9.915-14.15-8.956 6.737-9.916c1.346-1.918 3.031-2.878 5.39-3.518s4.38 0 6.401 1.278 3.031 2.879 3.706 5.119c.336 2.24 0 4.158-1.346 6.078h-.001zm-10.107 20.152l-19.874-12.474c-.674-.319-1.685-.64-2.695-.319s-1.685.64-2.021 1.278l-2.021 2.879c-4.716 6.718-2.695 15.673 4.38 20.151 2.695 1.6 5.39 2.24 8.421 2.24 5.052 0 9.768-2.24 12.801-6.396l2.021-2.878c1.008-1.281.672-3.521-1.013-4.481h0zm-6.737 4.159c-2.695 3.838-7.747 4.797-11.791 2.24s-5.052-7.356-2.359-11.196l.336-.319 13.814 9.275zm93.646-38.064c.336-3.838-1.01-7.677-3.369-10.555-2.695-2.879-6.401-4.797-10.442-5.119s-8.085.96-11.116 3.2l-12.127 9.915c-1.347 1.279-1.685 3.2-.336 4.478l15.158 17.271c.674.641 1.346.96 2.359 1.279h.336c.674 0 1.685-.319 2.021-.641l12.127-9.596c3.031-2.876 5.051-6.394 5.39-10.232h-.001zm-9.77 5.118l-9.432 7.678-11.116-12.477 9.432-7.677c1.685-1.279 4.042-1.919 6.062-1.919 2.359.319 4.38 1.278 5.727 2.878s2.02 3.838 2.02 5.756c.003 2.243-1.008 4.481-2.692 5.761h-.001zm-30.989-.64c-.675-.64-1.347-.959-2.359-1.278-1.011 0-1.685.319-2.36.64l-3.031 2.24c-3.031 2.559-5.052 6.078-5.39 9.915s1.01 7.678 3.37 10.556c2.695 2.878 6.4 4.797 10.442 5.118h1.346a15.11 15.11 0 0 0 9.768-3.519l3.031-2.24c.674-.64 1.01-1.278 1.346-2.24 0-.959-.336-1.6-.674-2.24l-15.489-16.952zm7.747 19.193c-1.685 1.278-4.042 1.919-6.062 1.919-2.36-.319-4.38-1.279-5.727-2.878s-2.359-3.521-2.359-5.759c.336-2.24 1.347-4.159 3.031-5.437l.336-.319 10.781 12.474z" fill="#000"/></svg>