<svg width="77" height="25" viewBox="0 0 77 25" fill="none" xmlns="http://www.w3.org/2000/svg">
<path d="M0.4 1.288H10.048V6.184C11.904 2.472 14.848 0.615999 18.88 0.615999C21.952 0.615999 24.352 1.72 26.08 3.928C27.84 6.104 28.72 9.128 28.72 13V25H18.64V11.992C18.64 10.616 18.336 9.56 17.728 8.824C17.152 8.088 16.336 7.72 15.28 7.72C14.512 7.72 13.76 7.976 13.024 8.488C12.288 8.968 11.68 9.672 11.2 10.6C10.752 11.528 10.528 12.584 10.528 13.768V25H0.4V1.288ZM32.3931 1.288H42.0411V6.184C43.1291 4.296 44.3611 2.904 45.7371 2.008C47.1451 1.08 48.8091 0.615999 50.7291 0.615999C52.6171 0.615999 54.2491 1.096 55.6251 2.056C57.0331 2.984 58.0891 4.248 58.7931 5.848C60.8411 2.36 63.8171 0.615999 67.7211 0.615999C69.5771 0.615999 71.1931 1.112 72.5691 2.104C73.9771 3.096 75.0651 4.536 75.8331 6.424C76.6011 8.28 76.9851 10.472 76.9851 13V25H66.8571V13C66.8571 11.368 66.5691 10.136 65.9931 9.304C65.4491 8.472 64.6811 8.056 63.6891 8.056C62.6011 8.056 61.6571 8.52 60.8571 9.448C60.0891 10.376 59.7051 11.496 59.7051 12.808V25H49.6731V13C49.6731 11.368 49.3851 10.136 48.8091 9.304C48.2651 8.472 47.4811 8.056 46.4571 8.056C45.3691 8.056 44.4411 8.52 43.6731 9.448C42.9051 10.376 42.5211 11.496 42.5211 12.808V25H32.3931V1.288Z" fill="#F4F4F3"/>
</svg>
